<svg xmlns="http://www.w3.org/2000/svg" version="1.1" xmlns:xlink="http://www.w3.org/1999/xlink" xmlns:svgjs="http://svgjs.dev/svgjs" width="1000" height="623" viewBox="0 0 1000 623"><g transform="matrix(1,0,0,1,-0.6060606060606233,0.2522267206477409)"><svg viewBox="0 0 396 247" data-background-color="#ffffff" preserveAspectRatio="xMidYMid meet" height="623" width="1000" xmlns="http://www.w3.org/2000/svg" xmlns:xlink="http://www.w3.org/1999/xlink"><g id="tight-bounds" transform="matrix(1,0,0,1,0.2400000000000091,-0.09999999999999432)"><svg viewBox="0 0 395.52 247.2" height="247.2" width="395.52"><g><svg></svg></g><g><svg viewBox="0 0 395.52 247.2" height="247.2" width="395.52"><g transform="matrix(1,0,0,1,75.54432,61.524985553956824)"><svg viewBox="0 0 244.43135999999998 124.15002889208634" height="124.15002889208634" width="244.43135999999998"><g><svg viewBox="0 0 244.43135999999998 124.15002889208634" height="124.15002889208634" width="244.43135999999998"><g><svg viewBox="0 0 244.43135999999998 124.15002889208634" height="124.15002889208634" width="244.43135999999998"><g><svg viewBox="0 0 244.43135999999998 124.15002889208634" height="124.15002889208634" width="244.43135999999998"><g id="textblocktransform"><svg viewBox="0 0 244.43135999999998 124.15002889208634" height="124.15002889208634" width="244.43135999999998" id="textblock"><g><svg viewBox="0 0 244.43135999999998 124.15002889208634" height="124.15002889208634" width="244.43135999999998"><g transform="matrix(1,0,0,1,0,0)"><svg width="244.43135999999998" viewBox="5.699999809265137 -35.29999923706055 69.5 35.29999923706055" height="124.15002889208634" data-palette-color="#4790fc"><path d="M21.1-35.3Q27.4-35.3 30.98-31.55 34.55-27.8 34.55-20.85L34.55-20.85 34.55 0 30.85 0 30.85-20.75Q30.85-26.3 28.1-29.15 25.35-32 20.4-32L20.4-32Q15.2-32 12.3-28.98 9.4-25.95 9.4-19.9L9.4-19.9 9.4 0 5.7 0 5.7-35 9.25-35 9.25-29.1Q12.6-35.3 21.1-35.3L21.1-35.3ZM70.8 0L56.5-16.45 49.35-9.2 49.35 0 45.65 0 45.65-35 49.35-35 49.35-13.85 69.9-35 74.15-35 59-19.15 75.2 0 70.8 0Z" opacity="1" transform="matrix(1,0,0,1,0,0)" fill="#4790fc" class="wordmark-text-0" data-fill-palette-color="primary" id="text-0"></path></svg></g></svg></g></svg></g></svg></g></svg></g></svg></g></svg></g><path d="M153.736 55.525L153.736 8.373 384.191 8.373 384.191 238.827 153.736 238.827 153.736 191.675 164.932 191.675 164.932 227.631 372.995 227.631 372.995 19.569 164.932 19.569 164.932 55.525Z" fill="#4790fc" stroke="transparent" data-fill-palette-color="primary"></path></svg></g><defs></defs></svg><rect width="395.52" height="247.2" fill="none" stroke="none" visibility="hidden"></rect></g></svg></g></svg>